<?xml version="1.0" standalone="no"?>
<!DOCTYPE svg PUBLIC "-//W3C//DTD SVG 20010904//EN"
 "http://www.w3.org/TR/2001/REC-SVG-20010904/DTD/svg10.dtd">
<svg version="1.0" xmlns="http://www.w3.org/2000/svg"
 width="339.000000pt" height="340.000000pt" viewBox="0 0 339.000000 340.000000"
 preserveAspectRatio="xMidYMid meet">

<g transform="translate(0.000000,340.000000) scale(0.100000,-0.100000)"
fill="#000000" stroke="none">
<path d="M1717 3357 c-66 -40 -71 -46 -118 -140 -27 -54 -55 -100 -62 -102 -7
-2 -35 -6 -63 -9 l-52 -6 -35 87 c-33 84 -34 88 -19 120 12 25 13 36 4 45 -18
18 -138 -104 -147 -150 -3 -20 -13 -67 -21 -103 l-15 -66 -61 -27 c-57 -24
-62 -25 -74 -8 -7 9 -32 44 -57 76 -40 53 -44 63 -36 90 6 22 5 34 -5 44 -11
11 -21 1 -61 -63 l-47 -77 6 -107 7 -107 -52 -41 -52 -41 -73 57 c-62 47 -73
61 -74 87 0 28 -15 54 -31 54 -4 0 -18 -38 -33 -83 l-26 -84 35 -103 35 -103
-36 -48 c-20 -27 -42 -49 -49 -49 -7 0 -47 16 -88 35 -64 29 -79 40 -91 70 -8
19 -22 35 -30 35 -13 0 -16 -16 -16 -93 l0 -92 55 -82 c30 -46 55 -89 55 -96
0 -25 -42 -117 -54 -117 -6 0 -48 5 -94 12 -75 10 -84 14 -100 40 -20 35 -57
39 -49 6 3 -13 11 -51 18 -85 11 -61 14 -65 95 -139 l84 -75 -7 -62 c-3 -34
-6 -63 -7 -64 -1 -1 -43 -7 -94 -14 -89 -11 -95 -11 -122 10 -28 20 -65 29
-58 14 2 -5 21 -42 42 -84 l39 -76 98 -49 c106 -52 105 -50 112 -142 2 -33 1
-34 -83 -68 -79 -32 -87 -34 -115 -21 -16 8 -38 11 -48 8 -16 -6 -8 -18 50
-77 l68 -71 101 -18 102 -18 23 -56 c13 -31 24 -59 24 -63 0 -3 -31 -30 -70
-60 -60 -45 -76 -53 -114 -53 -24 0 -46 -4 -47 -10 -2 -5 30 -31 70 -56 l74
-47 108 8 c60 5 112 5 116 2 4 -4 22 -27 41 -51 l35 -44 -60 -78 c-54 -69 -65
-78 -97 -81 -64 -5 -44 -29 46 -56 l81 -24 104 34 105 35 39 -29 c21 -16 45
-33 51 -37 10 -5 3 -29 -24 -95 -31 -75 -42 -91 -69 -102 -17 -7 -34 -20 -37
-28 -4 -11 12 -15 79 -21 l85 -7 95 63 95 62 52 -18 c29 -10 56 -21 60 -25 5
-4 3 -50 -3 -102 -11 -89 -14 -96 -41 -112 -16 -9 -29 -25 -29 -35 0 -18 4
-17 89 3 l90 21 72 84 72 83 45 -6 c25 -3 53 -6 62 -6 15 0 20 -16 30 -96 11
-92 11 -97 -9 -118 -12 -12 -21 -32 -21 -44 0 -21 3 -21 80 18 l80 40 50 99
c27 55 53 102 57 104 4 3 33 8 64 12 l56 7 37 -91 c34 -85 35 -93 21 -115 -14
-22 -12 -56 4 -56 4 0 35 25 68 55 56 50 61 59 72 117 33 170 27 156 89 184
30 13 59 23 63 22 5 -2 33 -36 63 -76 48 -64 53 -77 46 -102 -5 -19 -4 -34 4
-45 11 -15 18 -8 60 60 l48 76 -7 112 -7 112 51 39 51 38 75 -57 c66 -51 75
-62 75 -90 0 -28 24 -66 34 -54 1 2 14 42 29 88 l25 83 -36 103 -36 103 35 51
c19 28 39 51 44 51 24 0 170 -68 177 -83 4 -9 12 -25 17 -34 4 -10 16 -19 25
-21 14 -3 16 8 16 88 l0 91 -61 90 -61 91 23 56 c12 32 23 58 24 60 1 1 45 -3
97 -9 89 -11 97 -14 112 -40 10 -16 25 -29 36 -29 17 0 18 3 4 63 -8 34 -18
74 -22 88 -4 14 -44 58 -89 97 l-82 72 5 53 c3 28 7 57 9 63 2 6 45 16 96 23
87 11 93 11 114 -9 12 -11 31 -20 44 -20 21 0 20 3 -20 81 l-42 80 -98 49
c-101 51 -103 53 -114 131 l-6 47 89 35 c80 32 93 35 121 24 21 -8 34 -8 41
-1 7 7 -9 31 -52 76 l-63 65 -102 18 -102 17 -26 56 c-14 30 -24 59 -23 63 2
5 36 33 76 63 63 47 77 53 101 46 17 -5 33 -3 44 5 15 11 7 18 -60 60 l-77 47
-111 -7 -110 -7 -39 51 -38 51 56 75 c47 63 61 75 85 75 25 0 60 24 50 34 -2
2 -40 15 -84 29 l-80 24 -102 -35 -101 -36 -55 38 -55 38 37 90 c31 77 40 90
64 95 15 3 32 14 37 23 8 15 4 19 -22 24 -17 3 -57 6 -90 6 -57 0 -64 -3 -148
-61 l-89 -60 -62 22 -61 23 6 65 c11 109 16 128 41 141 29 15 40 50 17 50 -10
-1 -49 -9 -89 -18 -71 -17 -72 -18 -144 -101 -70 -81 -73 -83 -108 -77 -20 3
-43 6 -52 6 -12 0 -20 22 -33 96 -16 88 -16 98 -1 121 9 13 15 33 13 43 -3 17
-10 15 -71 -23z m220 -362 c619 -118 1073 -666 1073 -1295 0 -494 -286 -958
-725 -1175 -207 -102 -361 -139 -590 -139 -229 0 -383 37 -590 139 -502 248
-795 811 -710 1365 80 529 462 954 975 1086 52 13 129 28 170 34 99 12 294 5
397 -15z"/>
<path d="M1484 2896 c-169 -32 -318 -93 -461 -189 -270 -180 -456 -461 -519
-784 -23 -117 -23 -329 0 -446 90 -465 428 -825 894 -954 90 -25 111 -27 297
-27 186 0 207 2 297 27 404 111 712 395 847 779 47 134 65 244 65 398 0 154
-18 264 -65 398 -136 385 -450 674 -849 779 -79 21 -123 26 -265 29 -114 2
-193 -1 -241 -10z m426 -122 c288 -59 542 -231 700 -476 70 -108 112 -204 148
-337 22 -85 25 -116 25 -261 0 -145 -3 -176 -25 -261 -88 -329 -291 -580 -583
-720 -382 -184 -806 -143 -1143 111 -195 147 -332 355 -400 609 -22 83 -25
117 -26 256 0 132 4 175 22 247 89 357 317 629 644 768 196 84 426 107 638 64z"/>
<path d="M1656 2254 c-40 -40 7 -109 59 -86 32 15 41 47 21 77 -19 29 -57 33
-80 9z"/>
<path d="M1633 2050 c-114 -24 -212 -100 -259 -203 -25 -53 -29 -75 -29 -147
0 -111 33 -188 112 -260 177 -162 459 -105 559 112 25 54 29 75 29 148 0 73
-4 94 -29 148 -66 143 -235 232 -383 202z m192 -49 c60 -26 132 -95 163 -156
37 -73 42 -179 11 -260 -34 -90 -114 -166 -203 -194 -38 -12 -83 -21 -101 -21
-18 0 -63 9 -101 21 -89 28 -169 104 -203 194 -31 81 -26 187 11 260 28 54 95
123 147 149 76 40 195 43 276 7z"/>
<path d="M1640 1991 c-102 -22 -184 -91 -220 -187 -72 -191 71 -399 275 -399
204 0 347 208 275 399 -50 132 -198 215 -330 187z"/>
<path d="M1660 1220 c-11 -11 -20 -26 -20 -33 0 -24 31 -57 55 -57 52 0 74 65
33 94 -30 21 -44 20 -68 -4z"/>
</g>
</svg>
